<svg width="76" height="76" viewBox="0 0 76 76" fill="none" xmlns="http://www.w3.org/2000/svg">
<path fill-rule="evenodd" clip-rule="evenodd" d="M1.017e-06 64H3V66.5C3 67.9249 3.00117 68.9033 3.06314 69.6618C3.12368 70.4028 3.2347 70.8009 3.38148 71.089C3.71704 71.7475 4.25247 72.283 4.91103 72.6185C5.19911 72.7653 5.59716 72.8763 6.33816 72.9369C7.09667 72.9988 8.07512 73 9.5 73H66C67.4249 73 68.4033 72.9988 69.1618 72.9369C69.9028 72.8763 70.3009 72.7653 70.589 72.6185C71.2475 72.283 71.783 71.7475 72.1185 71.089C72.2653 70.8009 72.3763 70.4028 72.4369 69.6618C72.4988 68.9033 72.5 67.9249 72.5 66.5V64H75.5V66.5629C75.5 67.9096 75.5 69.011 75.4269 69.9061C75.3512 70.8327 75.1897 71.6695 74.7915 72.4509C74.1684 73.674 73.174 74.6684 71.9509 75.2915C71.1695 75.6897 70.3327 75.8512 69.4061 75.9269C68.511 76 67.4096 76 66.0628 76H9.43718C8.09042 76 6.98899 76 6.09386 75.9269C5.16734 75.8512 4.33054 75.6897 3.54906 75.2915C2.32601 74.6684 1.33164 73.674 0.708459 72.4509C0.310274 71.6695 0.148803 70.8327 0.0731036 69.9061C-3.12924e-05 69.011 -1.69836e-05 67.9096 5.40163e-07 66.5628L1.017e-06 64Z" fill="#FFFFFF"/>
<path d="M7.66248 21.5147H4.7954L0 6.32785H2.84172L6.21625 17.0093L9.61616 6.32785H12.4579L15.8324 17.0093L19.207 6.32785H22.074L17.2533 21.5147H14.4116L11.037 10.8333L7.66248 21.5147Z" fill="#FFFFFF"/>
<path d="M23.5821 1.7718C23.5821 0.809965 24.2164 0.151869 25.2313 0.151869C26.1955 0.151869 26.8298 0.809965 26.8298 1.7718C26.8298 2.75894 26.1955 3.41704 25.2313 3.41704C24.2164 3.41704 23.5821 2.75894 23.5821 1.7718ZM26.6014 21.5147H23.8612V6.32785H26.6014V21.5147Z" fill="#FFFFFF"/>
<path d="M31.8917 3.1133H33.9469V6.32785H37.5244V8.90962H33.9469V16.2499C33.9469 18.047 34.6827 18.8317 36.408 18.8317H37.5244V21.5147H36.1543C32.6783 21.5147 31.2067 20.0466 31.2067 16.4018V8.90962H28.8471V6.32785H31.2067L31.8917 3.1133Z" fill="#FFFFFF"/>
<path d="M50.2851 13.896C50.2851 10.8333 48.7121 8.85899 46.2509 8.85899C44.0182 8.85899 42.3689 10.9852 42.3689 13.9213V21.5147H39.6541V0H42.3689V9.16273C42.9525 7.41624 44.6778 6.15067 46.7076 6.15067C50.5896 6.15067 53 9.21335 53 13.896V21.5147H50.2851V13.896Z" fill="#FFFFFF"/>
<path d="M3.7805 34.2547C3.7805 37.3174 5.3536 39.2664 7.78935 39.2664C10.0475 39.2664 11.6713 37.1655 11.6713 34.2294V26.636H14.4116V41.8228H11.6713V38.9879C11.0878 40.7344 9.36244 42 7.33265 42C3.47603 42 1.04028 38.9373 1.04028 34.2547V26.636H3.7805V34.2547Z" fill="#FFFFFF"/>
</svg> 